<svg id="Layer_1" data-name="Layer 1" xmlns="http://www.w3.org/2000/svg" viewBox="0 0 1224 576"><defs><style>.cls-1{fill:#cd5656;}.cls-2{fill:#414042;}.cls-3{fill:#6d6e71;}.cls-4{fill:#e6e7e8;}.cls-5{fill:#58595b;}.cls-6{fill:#fff;}.cls-7{fill:#fc6;}</style></defs><title>bird</title><path class="cls-1" d="M566.45,287.75c-.17.21-1.62-1.64-3.89-1.6-1.89,0-2.51,1.33-3.89,1s-1.51-1.53-2.6-2.84c-2.79-3.36-7.63-3-7.57-3.38s5.55-1.13,8.09,1.79c1,1.21,1.2,2.57,2.41,2.86s1.86-1,3.44-1C564.78,284.63,566.65,287.5,566.45,287.75Z"/><path class="cls-1" d="M308.78,287.88c-.17.21-1.62-1.64-3.89-1.6-1.89,0-2.51,1.33-3.89,1s-1.51-1.53-2.6-2.84c-2.79-3.36-7.62-3-7.56-3.38s5.54-1.13,8.08,1.79c1.05,1.21,1.2,2.57,2.41,2.86s1.87-1,3.44-1C307.11,284.76,309,287.63,308.78,287.88Z"/><path class="cls-1" d="M390.49,287.61c-.17.21-1.62-1.63-3.9-1.6-1.88,0-2.51,1.33-3.88,1s-1.52-1.53-2.61-2.84c-2.79-3.36-7.62-3-7.56-3.38s5.55-1.13,8.09,1.8c1.05,1.2,1.19,2.56,2.41,2.85s1.86-1,3.44-1C388.82,284.49,390.69,287.36,390.49,287.61Z"/><path class="cls-1" d="M485.56,286.75c-.17.21-1.62-1.64-3.89-1.6-1.89,0-2.51,1.32-3.89,1s-1.51-1.53-2.6-2.84c-2.79-3.36-7.62-3-7.56-3.39s5.54-1.12,8.08,1.8c1.05,1.2,1.2,2.56,2.41,2.85s1.87-1,3.44-1C483.89,283.63,485.76,286.5,485.56,286.75Z"/><path class="cls-2" d="M80.69,335.69a31.58,31.58,0,0,1,12.57,5.18,31.22,31.22,0,0,1,6.14,5.68,34.28,34.28,0,0,0-19.66-2.7Z"/><path class="cls-3" d="M84.83,342.76a5.27,5.27,0,0,1-3-1.42,5.15,5.15,0,0,1-1.25-3.41V271.67l-2.69-4.23c1.46-.11,3.92-.3,7-.6,22.79-2.25,29.9-6.22,37.75-2a29.78,29.78,0,0,1,9.8,8.6c1,7.9,2.19,27.68-9.95,45.52C109,338.67,87.69,343.16,84.83,342.76Z"/><path class="cls-2" d="M121.94,317.45l-19.36-1.13a4.48,4.48,0,0,1-4.42-4.51V277.06a4.48,4.48,0,0,1,4.42-4.52h25a4.48,4.48,0,0,1,4.42,4.52,49.4,49.4,0,0,1-1.85,26.07A47.4,47.4,0,0,1,121.94,317.45Z"/><path class="cls-4" d="M123.65,317.28l-18.81-1.13a4.41,4.41,0,0,1-4.29-4.49V277a4.41,4.41,0,0,1,4.29-4.5h24.28a4.41,4.41,0,0,1,4.29,4.5,50.39,50.39,0,0,1-1.8,26A47.84,47.84,0,0,1,123.65,317.28Z"/><path class="cls-5" d="M129.86,289.28a18.79,18.79,0,0,0,7.34-2.19c2.41-1.46,2.72-3,2.77-3.46l-10.4,1.31Z"/><circle class="cls-2" cx="115.02" cy="281.87" r="6.15"/><path class="cls-2" d="M129,279.83c1.17-.08,6.35-.39,10.63,1.31,3.67,1.45,4.44,3.48,4.63,4.12l-14.64.62Z"/><path class="cls-2" d="M97.6,319l-16.21,42.1-19-7.31Z"/><path class="cls-3" d="M98.86,317l-16.2,42.1-19-7.3Z"/><path class="cls-2" d="M96.55,302c.06,2.46.18,13.32-4.77,22.23-4.23,7.6-9.57,9.12-11.25,9.49l-.09-29.44a20,20,0,0,1,6.91-2.69A20.23,20.23,0,0,1,96.55,302Z"/><circle class="cls-6" cx="115.02" cy="281.87" r="3.48"/><circle class="cls-4" cx="128.52" cy="284.75" r="4.99"/><circle class="cls-4" cx="113.86" cy="288.29" r="4.99"/><path class="cls-2" d="M169.71,335.69a31.55,31.55,0,0,1,12.58,5.18,31.22,31.22,0,0,1,6.14,5.68,34.3,34.3,0,0,0-19.67-2.7Z"/><path class="cls-3" d="M173.85,342.76a5.31,5.31,0,0,1-3-1.42,5.15,5.15,0,0,1-1.25-3.41V271.67l-2.68-4.23c1.46-.11,3.91-.3,6.94-.6,22.79-2.25,29.9-6.22,37.76-2a29.88,29.88,0,0,1,9.8,8.6c1,7.9,2.19,27.68-9.95,45.52C198,338.67,176.72,343.16,173.85,342.76Z"/><path class="cls-2" d="M211,317.45l-19.36-1.13a4.48,4.48,0,0,1-4.42-4.51V277.06a4.48,4.48,0,0,1,4.42-4.52h25a4.48,4.48,0,0,1,4.43,4.52,49.43,49.43,0,0,1-1.86,26.07A47.61,47.61,0,0,1,211,317.45Z"/><path class="cls-4" d="M212.67,317.28l-18.8-1.13a4.41,4.41,0,0,1-4.3-4.49V277a4.42,4.42,0,0,1,4.3-4.5h24.27a4.41,4.41,0,0,1,4.3,4.5,50.39,50.39,0,0,1-1.8,26A47.83,47.83,0,0,1,212.67,317.28Z"/><path class="cls-5" d="M218.38,289a18.86,18.86,0,0,0,7.65-.48c2.67-.88,3.31-2.3,3.48-2.75l-10.44-1.06Z"/><circle class="cls-2" cx="204.04" cy="281.87" r="6.15"/><path class="cls-2" d="M217.72,280.28c1.14-.28,6.18-1.47,10.7-.52,3.85.8,5,2.67,5.26,3.27l-14.33,3.11Z"/><path class="cls-2" d="M186.63,319l-16.21,42.1-19-7.31Z"/><path class="cls-3" d="M187.89,317l-16.21,42.1-19-7.3Z"/><path class="cls-2" d="M185.58,302c.06,2.46.17,13.32-4.77,22.23-4.23,7.6-9.57,9.12-11.25,9.49l-.09-29.44a19.94,19.94,0,0,1,6.91-2.69A20.23,20.23,0,0,1,185.58,302Z"/><circle class="cls-6" cx="204.04" cy="281.87" r="2.89"/><circle class="cls-4" cx="217.55" cy="284.75" r="4.99"/><circle class="cls-4" cx="202.88" cy="289.18" r="4.99"/><path class="cls-2" d="M251.94,335.69a31.55,31.55,0,0,1,12.58,5.18,31.22,31.22,0,0,1,6.14,5.68,34.28,34.28,0,0,0-19.66-2.7Z"/><path class="cls-3" d="M256.08,342.76a5.26,5.26,0,0,1-3-1.42,5.1,5.1,0,0,1-1.25-3.41V271.67l-2.69-4.23c1.46-.11,3.91-.3,6.94-.6,22.8-2.25,29.9-6.22,37.76-2a29.78,29.78,0,0,1,9.8,8.6c1,7.9,2.19,27.68-9.95,45.52C280.27,338.67,259,343.16,256.08,342.76Z"/><path class="cls-2" d="M293.2,317.45l-19.36-1.13a4.48,4.48,0,0,1-4.42-4.51V277.06a4.48,4.48,0,0,1,4.42-4.52h25a4.48,4.48,0,0,1,4.42,4.52,49.32,49.32,0,0,1-1.86,26.07A47.19,47.19,0,0,1,293.2,317.45Z"/><path class="cls-4" d="M294.9,317.28l-18.8-1.13a4.41,4.41,0,0,1-4.3-4.49V277a4.42,4.42,0,0,1,4.3-4.5h24.28a4.41,4.41,0,0,1,4.29,4.5,50.39,50.39,0,0,1-1.8,26A47.83,47.83,0,0,1,294.9,317.28Z"/><path class="cls-5" d="M300.48,289.27a18.94,18.94,0,0,0,7.65.31c2.75-.6,3.54-1.94,3.74-2.37l-10.26-2.14Z"/><circle class="cls-2" cx="286.28" cy="281.87" r="6.15"/><path class="cls-2" d="M299.84,281a26.17,26.17,0,0,1,10.38-2.64c3.94,0,5.4,1.64,5.8,2.16l-13.42,5.89Z"/><path class="cls-2" d="M268.86,319l-16.21,42.1-19-7.31Z"/><path class="cls-3" d="M270.12,317l-16.2,42.1-19-7.3Z"/><path class="cls-2" d="M267.81,302c.06,2.46.18,13.32-4.77,22.23-4.23,7.6-9.57,9.12-11.25,9.49l-.09-29.44a19.94,19.94,0,0,1,6.91-2.69A20.23,20.23,0,0,1,267.81,302Z"/><circle class="cls-6" cx="286.28" cy="281.87" r="2.42"/><circle class="cls-4" cx="299.78" cy="284.75" r="4.99"/><circle class="cls-4" cx="285.11" cy="290.07" r="4.99"/><path class="cls-2" d="M332.82,335.69a31.61,31.61,0,0,1,12.58,5.18,31.13,31.13,0,0,1,6.13,5.68,33.91,33.91,0,0,0-8.92-2.7,34.28,34.28,0,0,0-10.74,0Z"/><path class="cls-3" d="M337,342.76a5.31,5.31,0,0,1-3-1.42,5.15,5.15,0,0,1-1.25-3.41V271.67L330,267.44c1.45-.11,3.91-.3,6.94-.6,22.79-2.25,29.9-6.22,37.75-2a29.89,29.89,0,0,1,9.81,8.6c1,7.9,2.19,27.68-10,45.52C361.14,338.67,339.82,343.16,337,342.76Z"/><path class="cls-2" d="M374.08,317.45l-19.36-1.13a4.48,4.48,0,0,1-4.43-4.51V277.06a4.48,4.48,0,0,1,4.43-4.52h25a4.48,4.48,0,0,1,4.43,4.52,49.43,49.43,0,0,1-1.86,26.07A47.61,47.61,0,0,1,374.08,317.45Z"/><path class="cls-4" d="M375.78,317.28,357,316.15a4.41,4.41,0,0,1-4.3-4.49V277a4.41,4.41,0,0,1,4.3-4.5h24.27a4.42,4.42,0,0,1,4.3,4.5,50.31,50.31,0,0,1-1.81,26A47.84,47.84,0,0,1,375.78,317.28Z"/><path class="cls-5" d="M381.27,289.55a18.81,18.81,0,0,0,7.58,1.12c2.8-.3,3.72-1.55,4-2l-10-3.21Z"/><circle class="cls-2" cx="367.15" cy="281.87" r="6.15"/><path class="cls-2" d="M380.76,279.91c1-.59,5.52-3.15,10.12-3.52,3.92-.32,5.52,1.16,6,1.65l-12.87,7Z"/><path class="cls-2" d="M349.73,319l-16.2,42.1-19-7.31Z"/><path class="cls-3" d="M351,317l-16.21,42.1-19-7.3Z"/><path class="cls-2" d="M348.68,302c.07,2.46.18,13.32-4.77,22.23-4.23,7.6-9.57,9.12-11.24,9.49l-.09-29.44a19.94,19.94,0,0,1,6.91-2.69A20.18,20.18,0,0,1,348.68,302Z"/><circle class="cls-6" cx="367.15" cy="281.87" r="1.93"/><circle class="cls-4" cx="380.66" cy="284.75" r="4.99"/><circle class="cls-4" cx="365.99" cy="290.97" r="4.99"/><path class="cls-2" d="M424.5,335.69a31.61,31.61,0,0,1,12.58,5.18,31.22,31.22,0,0,1,6.14,5.68,34.3,34.3,0,0,0-19.67-2.7Z"/><path class="cls-3" d="M428.64,342.76a5.31,5.31,0,0,1-3-1.42,5.15,5.15,0,0,1-1.25-3.41V271.67l-2.68-4.23c1.46-.11,3.91-.3,6.94-.6,22.79-2.25,29.9-6.22,37.75-2a29.79,29.79,0,0,1,9.81,8.6c1,7.9,2.19,27.68-10,45.52C452.82,338.67,431.51,343.16,428.64,342.76Z"/><path class="cls-2" d="M465.76,317.45l-19.36-1.13a4.48,4.48,0,0,1-4.42-4.51V277.06a4.48,4.48,0,0,1,4.42-4.52h25a4.48,4.48,0,0,1,4.43,4.52A49.43,49.43,0,0,1,474,303.13,47.61,47.61,0,0,1,465.76,317.45Z"/><path class="cls-4" d="M467.46,317.28l-18.8-1.13a4.41,4.41,0,0,1-4.3-4.49V277a4.41,4.41,0,0,1,4.3-4.5h24.27a4.41,4.41,0,0,1,4.3,4.5,50.39,50.39,0,0,1-1.8,26A47.83,47.83,0,0,1,467.46,317.28Z"/><path class="cls-5" d="M473,289.55a18.76,18.76,0,0,0,7.57,1.12c2.81-.3,3.73-1.55,4-2l-10-3.21Z"/><circle class="cls-2" cx="458.83" cy="281.87" r="6.15"/><path class="cls-2" d="M472.18,280.44a26.15,26.15,0,0,1,8.64-6.33c3.66-1.45,5.62-.51,6.19-.17l-10.24,10.48Z"/><path class="cls-2" d="M441.42,319l-16.21,42.1-19-7.31Z"/><path class="cls-3" d="M442.68,317l-16.21,42.1-19-7.3Z"/><path class="cls-2" d="M440.37,302c.06,2.46.17,13.32-4.77,22.23-4.23,7.6-9.57,9.12-11.25,9.49l-.09-29.44a19.94,19.94,0,0,1,6.91-2.69A20.24,20.24,0,0,1,440.37,302Z"/><circle class="cls-6" cx="458.83" cy="281.87" r="1.3"/><circle class="cls-4" cx="472.34" cy="284.75" r="4.99"/><circle class="cls-4" cx="457.67" cy="292.75" r="4.99"/><path class="cls-1" d="M797.27,287.61c-.17.21-1.62-1.63-3.89-1.6-1.89,0-2.51,1.33-3.89,1s-1.51-1.53-2.6-2.84c-2.79-3.36-7.62-3-7.57-3.38s5.55-1.13,8.09,1.8c1.05,1.2,1.2,2.56,2.41,2.85s1.86-1,3.44-1C795.6,284.49,797.47,287.36,797.27,287.61Z"/><path class="cls-1" d="M892.34,286.75c-.17.21-1.61-1.64-3.89-1.6-1.89,0-2.51,1.32-3.89,1s-1.51-1.53-2.6-2.84c-2.79-3.36-7.62-3-7.56-3.39s5.54-1.12,8.09,1.8c1,1.2,1.19,2.56,2.41,2.85s1.86-1,3.44-1C890.68,283.63,892.55,286.5,892.34,286.75Z"/><path class="cls-2" d="M739.6,335.69a31.55,31.55,0,0,1,12.58,5.18,31.22,31.22,0,0,1,6.14,5.68,34.3,34.3,0,0,0-19.67-2.7Z"/><path class="cls-3" d="M743.74,342.76a5.31,5.31,0,0,1-3-1.42,5.15,5.15,0,0,1-1.25-3.41V271.67l-2.68-4.23c1.46-.11,3.91-.3,6.94-.6,22.79-2.25,29.9-6.22,37.76-2a29.88,29.88,0,0,1,9.8,8.6c1,7.9,2.19,27.68-9.95,45.52C767.92,338.67,746.61,343.16,743.74,342.76Z"/><path class="cls-2" d="M780.86,317.45l-19.36-1.13a4.48,4.48,0,0,1-4.42-4.51V277.06a4.48,4.48,0,0,1,4.42-4.52h25a4.48,4.48,0,0,1,4.42,4.52,49.32,49.32,0,0,1-1.86,26.07A47.4,47.4,0,0,1,780.86,317.45Z"/><path class="cls-4" d="M782.56,317.28l-18.8-1.13a4.41,4.41,0,0,1-4.3-4.49V277a4.42,4.42,0,0,1,4.3-4.5H788a4.41,4.41,0,0,1,4.3,4.5,50.39,50.39,0,0,1-1.8,26A47.83,47.83,0,0,1,782.56,317.28Z"/><path class="cls-5" d="M788.06,289.55a18.78,18.78,0,0,0,7.58,1.12c2.8-.3,3.72-1.55,4-2l-10-3.21Z"/><circle class="cls-2" cx="773.93" cy="281.87" r="6.15"/><path class="cls-2" d="M787.55,279.91c1-.59,5.51-3.15,10.11-3.52,3.93-.32,5.52,1.16,6,1.65l-12.86,7Z"/><path class="cls-2" d="M756.52,319l-16.21,42.1-19-7.31Z"/><path class="cls-3" d="M757.78,317l-16.21,42.1-19-7.3Z"/><path class="cls-2" d="M755.47,302c.06,2.46.18,13.32-4.77,22.23-4.23,7.6-9.57,9.12-11.25,9.49l-.09-29.44a19.94,19.94,0,0,1,6.91-2.69A20.23,20.23,0,0,1,755.47,302Z"/><circle class="cls-6" cx="773.93" cy="281.87" r="1.93"/><circle class="cls-4" cx="787.44" cy="284.75" r="4.99"/><circle class="cls-4" cx="772.77" cy="290.97" r="4.99"/><path class="cls-2" d="M831.28,335.69a31.55,31.55,0,0,1,12.58,5.18,31.22,31.22,0,0,1,6.14,5.68,34.28,34.28,0,0,0-19.66-2.7Z"/><path class="cls-3" d="M835.42,342.76a5.26,5.26,0,0,1-3-1.42,5.15,5.15,0,0,1-1.25-3.41V271.67l-2.69-4.23c1.46-.11,3.91-.3,6.94-.6,22.8-2.25,29.9-6.22,37.76-2a29.78,29.78,0,0,1,9.8,8.6c1,7.9,2.19,27.68-10,45.52C859.61,338.67,838.29,343.16,835.42,342.76Z"/><path class="cls-2" d="M872.54,317.45l-19.36-1.13a4.48,4.48,0,0,1-4.42-4.51V277.06a4.48,4.48,0,0,1,4.42-4.52h25a4.48,4.48,0,0,1,4.42,4.52,49.32,49.32,0,0,1-1.86,26.07A47.19,47.19,0,0,1,872.54,317.45Z"/><path class="cls-4" d="M874.24,317.28l-18.8-1.13a4.41,4.41,0,0,1-4.3-4.49V277a4.42,4.42,0,0,1,4.3-4.5h24.28A4.41,4.41,0,0,1,884,277a50.39,50.39,0,0,1-1.8,26A47.83,47.83,0,0,1,874.24,317.28Z"/><path class="cls-5" d="M879.74,289.55a18.78,18.78,0,0,0,7.58,1.12c2.8-.3,3.72-1.55,4-2l-10-3.21Z"/><circle class="cls-2" cx="865.62" cy="281.87" r="6.15"/><path class="cls-2" d="M879,280.44a26.27,26.27,0,0,1,8.64-6.33c3.66-1.45,5.62-.51,6.2-.17l-10.25,10.48Z"/><path class="cls-2" d="M848.2,319,832,361.05l-19-7.31Z"/><path class="cls-3" d="M849.46,317l-16.2,42.1-19-7.3Z"/><path class="cls-2" d="M847.15,302c.06,2.46.18,13.32-4.77,22.23-4.23,7.6-9.57,9.12-11.25,9.49L831,304.25a20,20,0,0,1,6.91-2.69A20.23,20.23,0,0,1,847.15,302Z"/><circle class="cls-6" cx="865.62" cy="281.87" r="1.3"/><circle class="cls-4" cx="879.12" cy="284.75" r="4.99"/><circle class="cls-4" cx="864.45" cy="292.75" r="4.99"/><path class="cls-2" d="M1099.44,334a30.33,30.33,0,0,1,18.28,10.6,33.56,33.56,0,0,0-19.2-2.63Z"/><path class="cls-3" d="M1103.49,340.91a5.2,5.2,0,0,1-2.94-1.39,5,5,0,0,1-1.22-3.33V271.47l-2.62-4.13c1.42-.11,3.82-.3,6.78-.59,22.26-2.2,29.2-6.07,36.87-2a29.05,29.05,0,0,1,9.58,8.4c.94,7.71,2.14,27-9.72,44.46C1127.11,336.91,1106.29,341.29,1103.49,340.91Z"/><path class="cls-2" d="M1139.74,316.18l-18.91-1.1a4.38,4.38,0,0,1-4.32-4.41V276.73a4.38,4.38,0,0,1,4.32-4.41h24.42a4.38,4.38,0,0,1,4.32,4.41,48.21,48.21,0,0,1-1.82,25.46A46.22,46.22,0,0,1,1139.74,316.18Z"/><path class="cls-4" d="M1141.4,316l-18.36-1.1a4.31,4.31,0,0,1-4.2-4.39V276.71a4.31,4.31,0,0,1,4.2-4.39h23.71a4.31,4.31,0,0,1,4.19,4.39,49.21,49.21,0,0,1-1.76,25.37A46.22,46.22,0,0,1,1141.4,316Z"/><path class="cls-5" d="M1147.47,288.66a18.14,18.14,0,0,0,7.17-2.13c2.36-1.43,2.66-2.92,2.71-3.38l-10.16,1.28Z"/><circle class="cls-2" cx="1132.98" cy="281.43" r="6.01"/><path class="cls-2" d="M1146.68,279.44a25.76,25.76,0,0,1,10.38,1.28c3.58,1.41,4.33,3.4,4.52,4l-14.3.61Z"/><path class="cls-2" d="M1116,317.65l-15.83,41.11-18.54-7.13Z"/><path class="cls-3" d="M1117.2,315.72l-15.83,41.11-18.53-7.13Z"/><path class="cls-2" d="M1114.94,301.06c.06,2.4.17,13-4.66,21.71-4.13,7.43-9.35,8.92-11,9.27q0-14.37-.08-28.75a19.53,19.53,0,0,1,6.75-2.63A19.74,19.74,0,0,1,1114.94,301.06Z"/><circle class="cls-6" cx="1132.98" cy="281.43" r="3.4"/><circle class="cls-4" cx="1146.17" cy="284.24" r="4.88"/><circle class="cls-4" cx="1131.84" cy="287.7" r="4.88"/><path class="cls-2" d="M1011.94,334a30.34,30.34,0,0,1,18.27,10.6A33.52,33.52,0,0,0,1011,342Z"/><path class="cls-3" d="M1016,340.91a5.2,5.2,0,0,1-2.94-1.39,5,5,0,0,1-1.22-3.33V271.47l-2.62-4.13c1.42-.11,3.82-.3,6.78-.59,22.26-2.2,29.2-6.07,36.87-2a29.05,29.05,0,0,1,9.58,8.4c.94,7.71,2.14,27-9.72,44.46C1039.6,336.91,1018.78,341.29,1016,340.91Z"/><path class="cls-2" d="M1052.23,316.18l-18.91-1.1a4.38,4.38,0,0,1-4.32-4.41V276.73a4.38,4.38,0,0,1,4.32-4.41h24.42a4.38,4.38,0,0,1,4.32,4.41,48.21,48.21,0,0,1-1.82,25.46A46.22,46.22,0,0,1,1052.23,316.18Z"/><path class="cls-4" d="M1053.9,316l-18.37-1.1a4.31,4.31,0,0,1-4.2-4.39V276.71a4.31,4.31,0,0,1,4.2-4.39h23.71a4.31,4.31,0,0,1,4.2,4.39,49.24,49.24,0,0,1-1.77,25.37A46.45,46.45,0,0,1,1053.9,316Z"/><path class="cls-5" d="M1059.47,288.35a18.3,18.3,0,0,0,7.47-.47c2.61-.86,3.24-2.24,3.4-2.68l-10.19-1Z"/><circle class="cls-2" cx="1045.47" cy="281.43" r="6.01"/><path class="cls-2" d="M1058.83,279.88a25.44,25.44,0,0,1,10.44-.51c3.77.78,4.85,2.61,5.14,3.19l-14,3Z"/><path class="cls-2" d="M1028.46,317.65l-15.83,41.11-18.53-7.13Z"/><path class="cls-3" d="M1029.69,315.72l-15.83,41.11-18.53-7.13Z"/><path class="cls-2" d="M1027.43,301.06c.06,2.4.18,13-4.66,21.71-4.13,7.43-9.34,8.92-11,9.27l-.09-28.75a19.53,19.53,0,0,1,6.75-2.63A19.74,19.74,0,0,1,1027.43,301.06Z"/><circle class="cls-6" cx="1045.47" cy="281.43" r="2.82"/><circle class="cls-4" cx="1058.66" cy="284.24" r="4.88"/><circle class="cls-4" cx="1044.33" cy="288.57" r="4.88"/><path class="cls-2" d="M926.6,334a30.78,30.78,0,0,1,12.28,5.06,30.26,30.26,0,0,1,6,5.54,33.52,33.52,0,0,0-19.2-2.63Z"/><path class="cls-3" d="M930.64,340.91a5.2,5.2,0,0,1-2.94-1.39,5,5,0,0,1-1.22-3.33V271.47l-2.62-4.13c1.42-.11,3.82-.3,6.78-.59,22.26-2.2,29.2-6.07,36.87-2a29.05,29.05,0,0,1,9.58,8.4c.94,7.71,2.14,27-9.72,44.46C954.26,336.91,933.44,341.29,930.64,340.91Z"/><path class="cls-2" d="M966.9,316.18,948,315.08a4.38,4.38,0,0,1-4.32-4.41V276.73a4.38,4.38,0,0,1,4.32-4.41H972.4a4.38,4.38,0,0,1,4.32,4.41,48.21,48.21,0,0,1-1.82,25.46A46.43,46.43,0,0,1,966.9,316.18Z"/><path class="cls-4" d="M968.56,316l-18.37-1.1a4.31,4.31,0,0,1-4.2-4.39V276.71a4.31,4.31,0,0,1,4.2-4.39H973.9a4.31,4.31,0,0,1,4.2,4.39,49.21,49.21,0,0,1-1.76,25.37A46.66,46.66,0,0,1,968.56,316Z"/><path class="cls-5" d="M974,288.66a18.32,18.32,0,0,0,7.47.3c2.69-.58,3.46-1.9,3.66-2.32l-10-2.08Z"/><circle class="cls-2" cx="960.13" cy="281.43" r="6.01"/><path class="cls-2" d="M973.37,280.58c1-.49,5.64-2.61,10.14-2.58,3.85,0,5.28,1.6,5.68,2.12l-13.12,5.75Z"/><path class="cls-2" d="M943.12,317.65l-15.83,41.11-18.53-7.13Z"/><path class="cls-3" d="M944.35,315.72l-15.83,41.11L910,349.7Z"/><path class="cls-2" d="M942.09,301.06c.06,2.4.18,13-4.66,21.71-4.13,7.43-9.34,8.92-11,9.27l-.09-28.75a19.53,19.53,0,0,1,6.75-2.63A19.74,19.74,0,0,1,942.09,301.06Z"/><circle class="cls-6" cx="960.13" cy="281.43" r="2.37"/><circle class="cls-4" cx="973.32" cy="284.24" r="4.88"/><circle class="cls-4" cx="958.99" cy="289.44" r="4.88"/><path class="cls-2" d="M506.18,336.32a30.64,30.64,0,0,1,12.19,5,30,30,0,0,1,5.94,5.5,33,33,0,0,0-19-2.61Z"/><path class="cls-3" d="M510.19,343.17a5.11,5.11,0,0,1-2.91-1.37,5,5,0,0,1-1.21-3.31V274.3l-2.6-4.09c1.41-.11,3.79-.3,6.72-.59,22.08-2.18,29-6,36.58-1.94a28.79,28.79,0,0,1,9.49,8.33c.93,7.65,2.12,26.81-9.64,44.09C533.62,339.21,513,343.56,510.19,343.17Z"/><path class="cls-2" d="M546.15,318.65l-18.75-1.09a4.35,4.35,0,0,1-4.29-4.37V279.52a4.34,4.34,0,0,1,4.29-4.37h24.21a4.34,4.34,0,0,1,4.29,4.37,47.94,47.94,0,0,1-1.8,25.26A46.13,46.13,0,0,1,546.15,318.65Z"/><path class="cls-4" d="M547.8,318.48l-18.22-1.09a4.28,4.28,0,0,1-4.16-4.35V279.5a4.28,4.28,0,0,1,4.16-4.35H553.1a4.27,4.27,0,0,1,4.16,4.35,48.9,48.9,0,0,1-1.74,25.16A46.17,46.17,0,0,1,547.8,318.48Z"/><path class="cls-5" d="M554.87,289.77a18.34,18.34,0,0,0,7,2.36c2.72.18,3.81-.86,4.12-1.2l-9-4.76Z"/><circle class="cls-2" cx="539.44" cy="284.18" r="5.96"/><path class="cls-2" d="M552.49,284.22a25.5,25.5,0,0,1,7.93-6.7c3.44-1.65,5.39-.86,6-.58l-9.19,10.82Z"/><path class="cls-2" d="M522.57,320.1l-15.7,40.78-18.38-7.07Z"/><path class="cls-3" d="M523.79,318.19,508.09,359l-18.38-7.08Z"/><path class="cls-2" d="M521.55,303.65c.06,2.38.17,12.91-4.62,21.54-4.1,7.37-9.27,8.84-10.9,9.19L506,305.86a7.22,7.22,0,0,1,3.81-2.14c2.28-.42,3.58.73,6.39.89A12.38,12.38,0,0,0,521.55,303.65Z"/><circle class="cls-6" cx="539.44" cy="284.18" r="1.12"/><circle class="cls-4" cx="552.52" cy="286.97" r="4.84"/><path class="cls-1" d="M705.53,287.75c-.17.21-1.61-1.64-3.89-1.6-1.89,0-2.51,1.33-3.89,1s-1.51-1.53-2.6-2.84c-2.79-3.36-7.62-3-7.56-3.38s5.54-1.13,8.09,1.79c1,1.21,1.19,2.57,2.41,2.86s1.86-1,3.43-1C703.87,284.63,705.74,287.5,705.53,287.75Z"/><path class="cls-2" d="M645.27,336.32a30.14,30.14,0,0,1,18.13,10.52,33.06,33.06,0,0,0-19-2.61Z"/><path class="cls-3" d="M649.28,343.17a5.17,5.17,0,0,1-2.92-1.37,5,5,0,0,1-1.21-3.31V274.3l-2.6-4.09c1.41-.11,3.79-.3,6.73-.59,22.08-2.18,29-6,36.57-1.94a28.7,28.7,0,0,1,9.5,8.33c.93,7.65,2.12,26.81-9.64,44.09C672.7,339.21,652.05,343.56,649.28,343.17Z"/><path class="cls-2" d="M685.24,318.65l-18.76-1.09a4.34,4.34,0,0,1-4.28-4.37V279.52a4.33,4.33,0,0,1,4.28-4.37H690.7a4.34,4.34,0,0,1,4.28,4.37,47.83,47.83,0,0,1-1.8,25.26A46.14,46.14,0,0,1,685.24,318.65Z"/><path class="cls-4" d="M686.88,318.48l-18.21-1.09a4.27,4.27,0,0,1-4.16-4.35V279.5a4.27,4.27,0,0,1,4.16-4.35h23.52a4.28,4.28,0,0,1,4.16,4.35,48.82,48.82,0,0,1-1.75,25.16A46,46,0,0,1,686.88,318.48Z"/><path class="cls-5" d="M694,289.77a18.34,18.34,0,0,0,7,2.36c2.73.18,3.82-.86,4.13-1.2l-9-4.76Z"/><circle class="cls-2" cx="678.53" cy="284.18" r="5.96"/><path class="cls-2" d="M691.58,284.22a25.42,25.42,0,0,1,7.92-6.7c3.45-1.65,5.4-.86,6-.58l-9.2,10.82Z"/><path class="cls-2" d="M661.65,320.1,646,360.88l-18.38-7.07Z"/><path class="cls-3" d="M662.88,318.19,647.18,359l-18.38-7.08Z"/><path class="cls-2" d="M660.64,303.65c.06,2.38.17,12.91-4.63,21.54-4.09,7.37-9.26,8.84-10.89,9.19L645,305.86a7.26,7.26,0,0,1,3.81-2.14c2.28-.42,3.59.73,6.39.89A12.4,12.4,0,0,0,660.64,303.65Z"/><circle class="cls-6" cx="678.53" cy="284.18" r="1.12"/><circle class="cls-4" cx="691.61" cy="286.97" r="4.84"/><path class="cls-7" d="M579.3,269.78l-10.45,10.27,8.28-11.8Z"/><path class="cls-7" d="M582.64,277.1l-10.36,3.38,9.42-5.12Z"/><path class="cls-7" d="M584.87,285l-14.53-1.85,14.38-.81Z"/></svg>