<svg id="Layer_1" data-name="Layer 1" xmlns="http://www.w3.org/2000/svg" viewBox="0 0 1224 576"><defs><style>.cls-1{fill:#414042;}.cls-2{fill:#6d6e71;}.cls-3{fill:#e6e7e8;}.cls-4{fill:#58595b;}.cls-5{fill:#fff;}</style></defs><title>bird</title><path class="cls-1" d="M88,337.52a32.36,32.36,0,0,1,12.84,5.29,31.68,31.68,0,0,1,6.27,5.79,35.1,35.1,0,0,0-20.08-2.75Z"/><path class="cls-2" d="M92.27,344.74a5.37,5.37,0,0,1-3.07-1.45,5.24,5.24,0,0,1-1.28-3.48V272.18l-2.74-4.32c1.49-.11,4-.31,7.09-.62,23.26-2.29,30.52-6.34,38.54-2.05a30.5,30.5,0,0,1,10,8.78c1,8.07,2.24,28.25-10.16,46.47C117,340.57,95.19,345.15,92.27,344.74Z"/><path class="cls-1" d="M130.16,318.91l-19.76-1.16a4.57,4.57,0,0,1-4.52-4.6V277.67a4.58,4.58,0,0,1,4.52-4.61h25.51a4.58,4.58,0,0,1,4.51,4.61,50.35,50.35,0,0,1-1.89,26.61A48.8,48.8,0,0,1,130.16,318.91Z"/><path class="cls-3" d="M131.89,318.73l-19.19-1.15a4.5,4.5,0,0,1-4.38-4.59V277.65a4.5,4.5,0,0,1,4.38-4.59h24.78a4.5,4.5,0,0,1,4.38,4.59A51.34,51.34,0,0,1,140,304.16,48.4,48.4,0,0,1,131.89,318.73Z"/><path class="cls-4" d="M138.24,290.15a19.32,19.32,0,0,0,7.49-2.24c2.46-1.49,2.77-3.05,2.83-3.53l-10.62,1.34Z"/><circle class="cls-1" cx="123.09" cy="282.59" r="6.28"/><path class="cls-1" d="M137.4,280.51c1.2-.09,6.48-.4,10.85,1.33,3.74,1.48,4.53,3.55,4.73,4.21l-14.95.63Z"/><path class="cls-1" d="M105.31,320.44l-16.54,43L69.4,356Z"/><path class="cls-2" d="M106.6,318.42l-16.54,43-19.37-7.46Z"/><path class="cls-1" d="M104.24,303.1c.06,2.51.18,13.6-4.87,22.69-4.32,7.77-9.77,9.32-11.48,9.69l-.09-30.05a20.49,20.49,0,0,1,7-2.75A20.74,20.74,0,0,1,104.24,303.1Z"/><circle class="cls-5" cx="123.09" cy="282.59" r="3.56"/><circle class="cls-3" cx="136.87" cy="285.52" r="5.09"/><circle class="cls-3" cx="121.9" cy="289.14" r="5.09"/><path class="cls-1" d="M178.92,337.52a32.39,32.39,0,0,1,12.83,5.29A31.68,31.68,0,0,1,198,348.6,35,35,0,0,0,178,345.85Z"/><path class="cls-2" d="M183.14,344.74a5.37,5.37,0,0,1-3.07-1.45,5.24,5.24,0,0,1-1.28-3.48V272.18l-2.73-4.32c1.48-.11,4-.31,7.08-.62,23.27-2.29,30.52-6.34,38.54-2.05a30.5,30.5,0,0,1,10,8.78c1,8.07,2.24,28.25-10.16,46.47C207.82,340.57,186.07,345.15,183.14,344.74Z"/><path class="cls-1" d="M221,318.91l-19.76-1.16a4.57,4.57,0,0,1-4.52-4.6V277.67a4.58,4.58,0,0,1,4.52-4.61h25.51a4.59,4.59,0,0,1,4.52,4.61,50.49,50.49,0,0,1-1.9,26.61A48.59,48.59,0,0,1,221,318.91Z"/><path class="cls-3" d="M222.77,318.73l-19.2-1.15a4.5,4.5,0,0,1-4.38-4.59V277.65a4.5,4.5,0,0,1,4.38-4.59h24.78a4.51,4.51,0,0,1,4.39,4.59,51.56,51.56,0,0,1-1.84,26.51A48.83,48.83,0,0,1,222.77,318.73Z"/><path class="cls-4" d="M228.59,289.82a19.32,19.32,0,0,0,7.81-.49c2.73-.9,3.38-2.34,3.55-2.8l-10.65-1.09Z"/><circle class="cls-1" cx="213.96" cy="282.59" r="6.28"/><path class="cls-1" d="M227.92,281c1.16-.28,6.31-1.49,10.92-.53,3.93.82,5.07,2.73,5.37,3.34l-14.62,3.17Z"/><path class="cls-1" d="M196.18,320.44l-16.54,43L160.27,356Z"/><path class="cls-2" d="M197.47,318.42l-16.54,43-19.37-7.46Z"/><path class="cls-1" d="M195.11,303.1c.06,2.51.18,13.6-4.87,22.69-4.32,7.77-9.77,9.32-11.48,9.69l-.09-30.05a20.49,20.49,0,0,1,7.05-2.75A20.73,20.73,0,0,1,195.11,303.1Z"/><circle class="cls-5" cx="213.96" cy="282.59" r="2.95"/><circle class="cls-3" cx="227.74" cy="285.52" r="5.09"/><circle class="cls-3" cx="212.77" cy="290.05" r="5.09"/><path class="cls-1" d="M262.85,337.52a32.36,32.36,0,0,1,12.84,5.29A31.59,31.59,0,0,1,282,348.6a34.91,34.91,0,0,0-9.11-2.75,35.39,35.39,0,0,0-11,0Z"/><path class="cls-2" d="M267.08,344.74a5.37,5.37,0,0,1-3.07-1.45,5.24,5.24,0,0,1-1.28-3.48V272.18L260,267.86c1.49-.11,4-.31,7.09-.62,23.26-2.29,30.52-6.34,38.53-2.05a30.41,30.41,0,0,1,10,8.78c1,8.07,2.24,28.25-10.16,46.47C291.76,340.57,270,345.15,267.08,344.74Z"/><path class="cls-1" d="M305,318.91l-19.77-1.16a4.57,4.57,0,0,1-4.51-4.6V277.67a4.58,4.58,0,0,1,4.51-4.61h25.52a4.58,4.58,0,0,1,4.51,4.61,50.35,50.35,0,0,1-1.89,26.61A48.8,48.8,0,0,1,305,318.91Z"/><path class="cls-3" d="M306.7,318.73l-19.19-1.15a4.51,4.51,0,0,1-4.39-4.59V277.65a4.51,4.51,0,0,1,4.39-4.59h24.78a4.5,4.5,0,0,1,4.38,4.59,51.34,51.34,0,0,1-1.84,26.51A48.62,48.62,0,0,1,306.7,318.73Z"/><path class="cls-4" d="M312.39,290.14a19.29,19.29,0,0,0,7.81.32c2.81-.62,3.61-2,3.83-2.43l-10.48-2.18Z"/><circle class="cls-1" cx="297.9" cy="282.59" r="6.28"/><path class="cls-1" d="M311.74,281.69c1.08-.51,5.89-2.71,10.59-2.68,4,0,5.51,1.66,5.93,2.2l-13.7,6Z"/><path class="cls-1" d="M280.12,320.44l-16.55,43L244.21,356Z"/><path class="cls-2" d="M281.41,318.42l-16.54,43-19.37-7.46Z"/><path class="cls-1" d="M279.05,303.1c.06,2.51.18,13.6-4.87,22.69-4.32,7.77-9.77,9.32-11.48,9.69l-.09-30.05a20.49,20.49,0,0,1,7.05-2.75A20.74,20.74,0,0,1,279.05,303.1Z"/><circle class="cls-5" cx="297.9" cy="282.59" r="2.47"/><circle class="cls-3" cx="311.68" cy="285.52" r="5.09"/><circle class="cls-3" cx="296.71" cy="290.96" r="5.09"/><path class="cls-1" d="M345.41,337.52a32.39,32.39,0,0,1,12.83,5.29,31.68,31.68,0,0,1,6.27,5.79,35,35,0,0,0-20.07-2.75Z"/><path class="cls-2" d="M349.63,344.74a5.37,5.37,0,0,1-3.07-1.45,5.24,5.24,0,0,1-1.28-3.48V272.18l-2.74-4.32c1.49-.11,4-.31,7.09-.62,23.26-2.29,30.52-6.34,38.54-2.05a30.5,30.5,0,0,1,10,8.78c1,8.07,2.24,28.25-10.16,46.47C374.31,340.57,352.55,345.15,349.63,344.74Z"/><path class="cls-1" d="M387.52,318.91l-19.76-1.16a4.57,4.57,0,0,1-4.52-4.6V277.67a4.58,4.58,0,0,1,4.52-4.61h25.51a4.59,4.59,0,0,1,4.52,4.61,50.49,50.49,0,0,1-1.9,26.61A48.59,48.59,0,0,1,387.52,318.91Z"/><path class="cls-3" d="M389.26,318.73l-19.2-1.15a4.5,4.5,0,0,1-4.38-4.59V277.65a4.5,4.5,0,0,1,4.38-4.59h24.78a4.51,4.51,0,0,1,4.39,4.59,51.48,51.48,0,0,1-1.85,26.51A48.62,48.62,0,0,1,389.26,318.73Z"/><path class="cls-4" d="M394.86,290.43a19.45,19.45,0,0,0,7.74,1.14c2.86-.31,3.8-1.59,4.06-2l-10.19-3.28Z"/><circle class="cls-1" cx="380.45" cy="282.59" r="6.28"/><path class="cls-1" d="M394.34,280.59c1-.61,5.63-3.22,10.33-3.6,4-.32,5.63,1.18,6.09,1.69l-13.13,7.17Z"/><path class="cls-1" d="M362.67,320.44l-16.54,43L326.76,356Z"/><path class="cls-2" d="M364,318.42l-16.54,43-19.37-7.46Z"/><path class="cls-1" d="M361.6,303.1c.06,2.51.18,13.6-4.87,22.69-4.32,7.77-9.77,9.32-11.48,9.69l-.09-30.05a20.49,20.49,0,0,1,7-2.75A20.73,20.73,0,0,1,361.6,303.1Z"/><circle class="cls-5" cx="380.45" cy="282.59" r="1.97"/><circle class="cls-3" cx="394.23" cy="285.52" r="5.09"/><circle class="cls-3" cx="379.26" cy="291.87" r="5.09"/><path class="cls-1" d="M439,337.52a32.48,32.48,0,0,1,12.84,5.29,31.87,31.87,0,0,1,6.26,5.79A35,35,0,0,0,438,345.85Z"/><path class="cls-2" d="M443.21,344.74a5.37,5.37,0,0,1-3.07-1.45,5.28,5.28,0,0,1-1.27-3.48V272.18l-2.74-4.32c1.49-.11,4-.31,7.08-.62,23.27-2.29,30.52-6.34,38.54-2.05a30.51,30.51,0,0,1,10,8.78c1,8.07,2.23,28.25-10.16,46.47C467.9,340.57,446.14,345.15,443.21,344.74Z"/><path class="cls-1" d="M481.1,318.91l-19.76-1.16a4.58,4.58,0,0,1-4.52-4.6V277.67a4.59,4.59,0,0,1,4.52-4.61h25.51a4.58,4.58,0,0,1,4.52,4.61,50.38,50.38,0,0,1-1.9,26.61A48.38,48.38,0,0,1,481.1,318.91Z"/><path class="cls-3" d="M482.84,318.73l-19.2-1.15a4.5,4.5,0,0,1-4.38-4.59V277.65a4.5,4.5,0,0,1,4.38-4.59h24.78a4.51,4.51,0,0,1,4.39,4.59A51.45,51.45,0,0,1,491,304.16,48.83,48.83,0,0,1,482.84,318.73Z"/><path class="cls-4" d="M488.45,290.43a19.39,19.39,0,0,0,7.73,1.14c2.86-.31,3.8-1.59,4.06-2l-10.19-3.28Z"/><circle class="cls-1" cx="474.03" cy="282.59" r="6.28"/><path class="cls-1" d="M487.65,281.12c.81-.88,4.45-4.72,8.82-6.46,3.74-1.48,5.74-.51,6.33-.17l-10.46,10.7Z"/><path class="cls-1" d="M456.25,320.44l-16.54,43L420.34,356Z"/><path class="cls-2" d="M457.54,318.42l-16.54,43-19.37-7.46Z"/><path class="cls-1" d="M455.18,303.1c.07,2.51.18,13.6-4.87,22.69-4.32,7.77-9.77,9.32-11.48,9.69l-.09-30.05a20.49,20.49,0,0,1,7.05-2.75A20.73,20.73,0,0,1,455.18,303.1Z"/><circle class="cls-5" cx="474.03" cy="282.59" r="1.32"/><circle class="cls-3" cx="487.82" cy="285.52" r="5.09"/><circle class="cls-3" cx="472.85" cy="293.69" r="5.09"/><path class="cls-1" d="M524.44,337.52a32.42,32.42,0,0,1,12.84,5.29,31.59,31.59,0,0,1,6.26,5.79,35,35,0,0,0-20.07-2.75Z"/><path class="cls-2" d="M528.67,344.74a5.32,5.32,0,0,1-3.07-1.45,5.24,5.24,0,0,1-1.28-3.48V272.18l-2.74-4.32c1.49-.11,4-.31,7.09-.62,23.26-2.29,30.52-6.34,38.53-2.05a30.51,30.51,0,0,1,10,8.78c1,8.07,2.23,28.25-10.16,46.47C553.35,340.57,531.59,345.15,528.67,344.74Z"/><path class="cls-1" d="M566.55,318.91l-19.76-1.16a4.57,4.57,0,0,1-4.51-4.6V277.67a4.58,4.58,0,0,1,4.51-4.61H572.3a4.58,4.58,0,0,1,4.52,4.61,50.28,50.28,0,0,1-1.9,26.61A48.38,48.38,0,0,1,566.55,318.91Z"/><path class="cls-3" d="M568.29,318.73l-19.19-1.15a4.51,4.51,0,0,1-4.39-4.59V277.65a4.51,4.51,0,0,1,4.39-4.59h24.77a4.51,4.51,0,0,1,4.39,4.59,51.45,51.45,0,0,1-1.84,26.51A48.83,48.83,0,0,1,568.29,318.73Z"/><path class="cls-4" d="M576.62,289.64a19.07,19.07,0,0,0,7.59,1.89c2.88,0,3.94-1.21,4.23-1.6l-9.82-4.25Z"/><circle class="cls-1" cx="559.48" cy="282.59" r="6.28"/><path class="cls-1" d="M573.59,282c.66-1,3.66-5.35,7.72-7.73,3.47-2,5.59-1.39,6.22-1.14l-8.69,12.18Z"/><path class="cls-1" d="M541.7,320.44l-16.54,43L505.8,356Z"/><path class="cls-2" d="M543,318.42l-16.55,43-19.36-7.46Z"/><path class="cls-1" d="M540.63,303.1c.07,2.51.18,13.6-4.87,22.69-4.31,7.77-9.76,9.32-11.48,9.69l-.09-30.05a20.49,20.49,0,0,1,7-2.75A20.72,20.72,0,0,1,540.63,303.1Z"/><circle class="cls-5" cx="559.48" cy="282.59" r="1.38"/><circle class="cls-3" cx="574.18" cy="285.52" r="5.09"/><path class="cls-1" d="M1089.67,337.52a32.39,32.39,0,0,1,12.83,5.29,31.68,31.68,0,0,1,6.27,5.79,35,35,0,0,0-20.07-2.75Z"/><path class="cls-2" d="M1093.89,344.74a5.37,5.37,0,0,1-3.07-1.45,5.24,5.24,0,0,1-1.28-3.48V272.18l-2.73-4.32c1.48-.11,4-.31,7.08-.62,23.27-2.29,30.52-6.34,38.54-2.05a30.4,30.4,0,0,1,10,8.78c1,8.07,2.24,28.25-10.16,46.47C1118.58,340.57,1096.82,345.15,1093.89,344.74Z"/><path class="cls-1" d="M1131.78,318.91,1112,317.75a4.57,4.57,0,0,1-4.52-4.6V277.67a4.58,4.58,0,0,1,4.52-4.61h25.51a4.59,4.59,0,0,1,4.52,4.61,50.49,50.49,0,0,1-1.9,26.61A48.38,48.38,0,0,1,1131.78,318.91Z"/><path class="cls-3" d="M1133.52,318.73l-19.2-1.15a4.5,4.5,0,0,1-4.38-4.59V277.65a4.5,4.5,0,0,1,4.38-4.59h24.78a4.51,4.51,0,0,1,4.39,4.59,51.45,51.45,0,0,1-1.84,26.51A48.83,48.83,0,0,1,1133.52,318.73Z"/><path class="cls-4" d="M1139.86,290.15a19.32,19.32,0,0,0,7.49-2.24c2.46-1.49,2.77-3.05,2.83-3.53l-10.62,1.34Z"/><circle class="cls-1" cx="1124.71" cy="282.59" r="6.28"/><path class="cls-1" d="M1139,280.51c1.19-.09,6.47-.4,10.85,1.33,3.74,1.48,4.53,3.55,4.72,4.21l-14.95.63Z"/><path class="cls-1" d="M1106.93,320.44l-16.54,43L1071,356Z"/><path class="cls-2" d="M1108.22,318.42l-16.54,43-19.37-7.46Z"/><path class="cls-1" d="M1105.86,303.1c.06,2.51.18,13.6-4.87,22.69-4.32,7.77-9.77,9.32-11.48,9.69l-.09-30.05a20.49,20.49,0,0,1,7-2.75A20.73,20.73,0,0,1,1105.86,303.1Z"/><circle class="cls-5" cx="1124.71" cy="282.59" r="3.56"/><circle class="cls-3" cx="1138.49" cy="285.52" r="5.09"/><circle class="cls-3" cx="1123.52" cy="289.14" r="5.09"/><path class="cls-1" d="M998.22,337.52a32.39,32.39,0,0,1,12.83,5.29,31.68,31.68,0,0,1,6.27,5.79,35,35,0,0,0-20.07-2.75Z"/><path class="cls-2" d="M1002.44,344.74a5.37,5.37,0,0,1-3.07-1.45,5.24,5.24,0,0,1-1.28-3.48V272.18l-2.74-4.32c1.49-.11,4-.31,7.09-.62,23.26-2.29,30.52-6.34,38.54-2.05a30.5,30.5,0,0,1,10,8.78c1,8.07,2.24,28.25-10.16,46.47C1027.12,340.57,1005.37,345.15,1002.44,344.74Z"/><path class="cls-1" d="M1040.33,318.91l-19.76-1.16a4.57,4.57,0,0,1-4.52-4.6V277.67a4.58,4.58,0,0,1,4.52-4.61h25.51a4.59,4.59,0,0,1,4.52,4.61,50.49,50.49,0,0,1-1.9,26.61A48.59,48.59,0,0,1,1040.33,318.91Z"/><path class="cls-3" d="M1042.07,318.73l-19.2-1.15a4.5,4.5,0,0,1-4.38-4.59V277.65a4.5,4.5,0,0,1,4.38-4.59h24.78a4.51,4.51,0,0,1,4.39,4.59,51.56,51.56,0,0,1-1.84,26.51A48.83,48.83,0,0,1,1042.07,318.73Z"/><path class="cls-4" d="M1047.89,289.82a19.32,19.32,0,0,0,7.81-.49c2.73-.9,3.38-2.34,3.55-2.8l-10.65-1.09Z"/><circle class="cls-1" cx="1033.26" cy="282.59" r="6.28"/><path class="cls-1" d="M1047.22,281c1.16-.28,6.31-1.49,10.92-.53,3.93.82,5.07,2.73,5.37,3.34l-14.62,3.17Z"/><path class="cls-1" d="M1015.48,320.44l-16.54,43L979.57,356Z"/><path class="cls-2" d="M1016.77,318.42l-16.54,43-19.37-7.46Z"/><path class="cls-1" d="M1014.41,303.1c.06,2.51.18,13.6-4.87,22.69-4.32,7.77-9.77,9.32-11.48,9.69L998,305.43a20.49,20.49,0,0,1,7-2.75A20.73,20.73,0,0,1,1014.41,303.1Z"/><circle class="cls-5" cx="1033.26" cy="282.59" r="2.95"/><circle class="cls-3" cx="1047.04" cy="285.52" r="5.09"/><circle class="cls-3" cx="1032.07" cy="290.05" r="5.09"/><path class="cls-1" d="M909,337.52a32.36,32.36,0,0,1,12.84,5.29,31.59,31.59,0,0,1,6.26,5.79,34.91,34.91,0,0,0-9.11-2.75,35.38,35.38,0,0,0-11,0Z"/><path class="cls-2" d="M913.26,344.74a5.37,5.37,0,0,1-3.07-1.45,5.24,5.24,0,0,1-1.28-3.48V272.18l-2.74-4.32c1.49-.11,4-.31,7.09-.62,23.26-2.29,30.52-6.34,38.53-2.05a30.51,30.51,0,0,1,10,8.78c1,8.07,2.23,28.25-10.16,46.47C937.94,340.57,916.18,345.15,913.26,344.74Z"/><path class="cls-1" d="M951.15,318.91l-19.77-1.16a4.57,4.57,0,0,1-4.51-4.6V277.67a4.58,4.58,0,0,1,4.51-4.61H956.9a4.58,4.58,0,0,1,4.51,4.61,50.35,50.35,0,0,1-1.89,26.61A48.8,48.8,0,0,1,951.15,318.91Z"/><path class="cls-3" d="M952.88,318.73l-19.19-1.15A4.51,4.51,0,0,1,929.3,313V277.65a4.51,4.51,0,0,1,4.39-4.59h24.78a4.5,4.5,0,0,1,4.38,4.59A51.45,51.45,0,0,1,961,304.16,48.83,48.83,0,0,1,952.88,318.73Z"/><path class="cls-4" d="M958.57,290.14a19.29,19.29,0,0,0,7.81.32c2.81-.62,3.61-2,3.82-2.43l-10.47-2.18Z"/><circle class="cls-1" cx="944.07" cy="282.59" r="6.28"/><path class="cls-1" d="M957.92,281.69c1.08-.51,5.89-2.71,10.59-2.68,4,0,5.51,1.66,5.93,2.2l-13.7,6Z"/><path class="cls-1" d="M926.3,320.44l-16.55,43L890.39,356Z"/><path class="cls-2" d="M927.59,318.42l-16.55,43-19.36-7.46Z"/><path class="cls-1" d="M925.23,303.1c.06,2.51.18,13.6-4.88,22.69-4.31,7.77-9.76,9.32-11.48,9.69l-.09-30.05a20.55,20.55,0,0,1,16.45-2.33Z"/><circle class="cls-5" cx="944.07" cy="282.59" r="2.47"/><circle class="cls-3" cx="957.86" cy="285.52" r="5.09"/><circle class="cls-3" cx="942.89" cy="290.96" r="5.09"/><path class="cls-1" d="M819.86,337.52a32.39,32.39,0,0,1,12.83,5.29A31.68,31.68,0,0,1,839,348.6a35,35,0,0,0-20.07-2.75Z"/><path class="cls-2" d="M824.08,344.74a5.37,5.37,0,0,1-3.07-1.45,5.24,5.24,0,0,1-1.28-3.48V272.18L817,267.86c1.49-.11,4-.31,7.09-.62,23.26-2.29,30.52-6.34,38.54-2.05a30.5,30.5,0,0,1,10,8.78c1,8.07,2.24,28.25-10.16,46.47C848.76,340.57,827,345.15,824.08,344.74Z"/><path class="cls-1" d="M862,318.91l-19.76-1.16a4.57,4.57,0,0,1-4.52-4.6V277.67a4.58,4.58,0,0,1,4.52-4.61h25.51a4.59,4.59,0,0,1,4.52,4.61,50.49,50.49,0,0,1-1.9,26.61A48.59,48.59,0,0,1,862,318.91Z"/><path class="cls-3" d="M863.71,318.73l-19.2-1.15a4.5,4.5,0,0,1-4.38-4.59V277.65a4.5,4.5,0,0,1,4.38-4.59h24.78a4.51,4.51,0,0,1,4.39,4.59,51.48,51.48,0,0,1-1.85,26.51A48.62,48.62,0,0,1,863.71,318.73Z"/><path class="cls-4" d="M869.31,290.43a19.45,19.45,0,0,0,7.74,1.14c2.86-.31,3.8-1.59,4.06-2l-10.19-3.28Z"/><circle class="cls-1" cx="854.9" cy="282.59" r="6.28"/><path class="cls-1" d="M868.79,280.59c1-.61,5.63-3.22,10.33-3.6,4-.32,5.63,1.18,6.09,1.69l-13.13,7.17Z"/><path class="cls-1" d="M837.12,320.44l-16.54,43L801.21,356Z"/><path class="cls-2" d="M838.41,318.42l-16.54,43-19.37-7.46Z"/><path class="cls-1" d="M836.05,303.1c.06,2.51.18,13.6-4.87,22.69-4.32,7.77-9.77,9.32-11.48,9.69l-.09-30.05a20.49,20.49,0,0,1,7-2.75A20.73,20.73,0,0,1,836.05,303.1Z"/><circle class="cls-5" cx="854.9" cy="282.59" r="1.97"/><circle class="cls-3" cx="868.68" cy="285.52" r="5.09"/><circle class="cls-3" cx="853.71" cy="291.87" r="5.09"/><path class="cls-1" d="M724.59,337.52a32.36,32.36,0,0,1,12.84,5.29,31.31,31.31,0,0,1,6.26,5.79,34.91,34.91,0,0,0-9.11-2.75,35.39,35.39,0,0,0-11,0Z"/><path class="cls-2" d="M728.82,344.74a5.37,5.37,0,0,1-3.07-1.45,5.24,5.24,0,0,1-1.28-3.48V272.18l-2.74-4.32c1.49-.11,4-.31,7.09-.62,23.26-2.29,30.52-6.34,38.53-2.05a30.41,30.41,0,0,1,10,8.78c1,8.07,2.24,28.25-10.16,46.47C753.5,340.57,731.74,345.15,728.82,344.74Z"/><path class="cls-1" d="M766.71,318.91,747,317.75a4.57,4.57,0,0,1-4.52-4.6V277.67a4.58,4.58,0,0,1,4.52-4.61h25.51a4.58,4.58,0,0,1,4.51,4.61,50.35,50.35,0,0,1-1.89,26.61A48.8,48.8,0,0,1,766.71,318.91Z"/><path class="cls-3" d="M768.44,318.73l-19.19-1.15a4.51,4.51,0,0,1-4.39-4.59V277.65a4.51,4.51,0,0,1,4.39-4.59H774a4.5,4.5,0,0,1,4.38,4.59,51.34,51.34,0,0,1-1.84,26.51A48.4,48.4,0,0,1,768.44,318.73Z"/><path class="cls-4" d="M774.05,290.43a19.45,19.45,0,0,0,7.74,1.14c2.86-.31,3.8-1.59,4.05-2l-10.18-3.28Z"/><circle class="cls-1" cx="759.64" cy="282.59" r="6.28"/><path class="cls-1" d="M773.26,281.12c.81-.88,4.44-4.72,8.82-6.46,3.74-1.48,5.73-.51,6.32-.17l-10.46,10.7Z"/><path class="cls-1" d="M741.86,320.44l-16.54,43L706,356Z"/><path class="cls-2" d="M743.15,318.42l-16.54,43-19.37-7.46Z"/><path class="cls-1" d="M740.79,303.1c.06,2.51.18,13.6-4.87,22.69-4.32,7.77-9.77,9.32-11.48,9.69l-.09-30.05a20.49,20.49,0,0,1,7-2.75A20.74,20.74,0,0,1,740.79,303.1Z"/><circle class="cls-5" cx="759.64" cy="282.59" r="1.32"/><circle class="cls-3" cx="773.42" cy="285.52" r="5.09"/><circle class="cls-3" cx="758.45" cy="293.69" r="5.09"/><path class="cls-1" d="M636.68,337.52a32.42,32.42,0,0,1,12.84,5.29,31.59,31.59,0,0,1,6.26,5.79,35,35,0,0,0-20.07-2.75Z"/><path class="cls-2" d="M640.9,344.74a5.37,5.37,0,0,1-3.07-1.45,5.28,5.28,0,0,1-1.27-3.48V272.18l-2.74-4.32c1.49-.11,4-.31,7.08-.62,23.27-2.29,30.53-6.34,38.54-2.05a30.51,30.51,0,0,1,10,8.78c1,8.07,2.23,28.25-10.16,46.47C665.59,340.57,643.83,345.15,640.9,344.74Z"/><path class="cls-1" d="M678.79,318.91,659,317.75a4.57,4.57,0,0,1-4.51-4.6V277.67a4.58,4.58,0,0,1,4.51-4.61h25.51a4.58,4.58,0,0,1,4.52,4.61,50.28,50.28,0,0,1-1.9,26.61A48.38,48.38,0,0,1,678.79,318.91Z"/><path class="cls-3" d="M680.53,318.73l-19.19-1.15A4.51,4.51,0,0,1,657,313V277.65a4.51,4.51,0,0,1,4.39-4.59h24.77a4.51,4.51,0,0,1,4.39,4.59,51.45,51.45,0,0,1-1.84,26.51A48.83,48.83,0,0,1,680.53,318.73Z"/><path class="cls-4" d="M688.86,289.64a19.07,19.07,0,0,0,7.59,1.89c2.88,0,3.94-1.21,4.23-1.6l-9.82-4.25Z"/><circle class="cls-1" cx="671.72" cy="282.59" r="6.28"/><path class="cls-1" d="M685.83,282c.66-1,3.66-5.35,7.72-7.73,3.47-2,5.59-1.39,6.22-1.14l-8.69,12.18Z"/><path class="cls-1" d="M653.94,320.44l-16.54,43L618,356Z"/><path class="cls-2" d="M655.24,318.42l-16.55,43-19.36-7.46Z"/><path class="cls-1" d="M652.87,303.1c.07,2.51.18,13.6-4.87,22.69-4.31,7.77-9.76,9.32-11.48,9.69l-.09-30.05a20.49,20.49,0,0,1,7.05-2.75A20.73,20.73,0,0,1,652.87,303.1Z"/><circle class="cls-5" cx="671.72" cy="282.59" r="1.38"/><circle class="cls-3" cx="686.42" cy="285.52" r="5.09"/></svg>