<svg id="Layer_1" data-name="Layer 1" xmlns="http://www.w3.org/2000/svg" viewBox="0 0 1224 576"><defs><style>.cls-1{fill:#414042;}.cls-2{fill:#6d6e71;}.cls-3{fill:#e6e7e8;}.cls-4{fill:#58595b;}.cls-5{fill:#fff;}</style></defs><title>bird</title><path class="cls-1" d="M501.38,341.12a33.57,33.57,0,0,1,13.42,5.53,32.84,32.84,0,0,1,6.55,6.05,36.46,36.46,0,0,0-21-2.87Z"/><path class="cls-2" d="M505.8,348.67a5.66,5.66,0,0,1-3.21-1.52,5.46,5.46,0,0,1-1.34-3.64V272.79l-2.86-4.52c1.55-.12,4.17-.32,7.41-.64,24.33-2.41,31.91-6.64,40.3-2.15a32,32,0,0,1,10.46,9.18c1,8.43,2.34,29.54-10.62,48.59C531.61,344.3,508.86,349.09,505.8,348.67Z"/><path class="cls-1" d="M545.42,321.65l-20.67-1.2a4.79,4.79,0,0,1-4.72-4.82v-37.1a4.79,4.79,0,0,1,4.72-4.82h26.68a4.78,4.78,0,0,1,4.72,4.82,52.71,52.71,0,0,1-2,27.83A50.75,50.75,0,0,1,545.42,321.65Z"/><path class="cls-3" d="M547.23,321.46l-20.07-1.2a4.71,4.71,0,0,1-4.58-4.8V278.51a4.71,4.71,0,0,1,4.58-4.8h25.91a4.71,4.71,0,0,1,4.59,4.8,53.77,53.77,0,0,1-1.93,27.72A50.79,50.79,0,0,1,547.23,321.46Z"/><path class="cls-4" d="M553,291.88a19.87,19.87,0,0,0,8.13-.82c2.82-1,3.45-2.58,3.6-3.06a11.71,11.71,0,0,0-4.54-1.67,11.86,11.86,0,0,0-6.62.95Z"/><circle class="cls-1" cx="538.02" cy="284.62" r="6.57"/><path class="cls-1" d="M554,281.82c1.24.15,6.73.87,10.88,3.51,3.55,2.26,4,4.54,4,5.25a19.5,19.5,0,0,0-9.66-3,19.06,19.06,0,0,0-5.81.7Z"/><path class="cls-1" d="M519.43,323.25l-17.29,44.93-20.26-7.8Z"/><path class="cls-2" d="M520.78,321.14l-17.3,44.93-20.25-7.8Z"/><path class="cls-1" d="M518.31,305.12c.07,2.63.19,14.22-5.09,23.73-4.51,8.12-10.21,9.74-12,10.13q-.06-15.71-.1-31.42a12.62,12.62,0,0,0,6.72,2.39C513.89,310.22,517.8,305.73,518.31,305.12Z"/><circle class="cls-5" cx="538.02" cy="284.62" r="3.72"/><circle class="cls-3" cx="552.44" cy="286.74" r="5.33"/><ellipse class="cls-3" cx="536.33" cy="278.84" rx="7.23" ry="4.79" transform="translate(-65.94 227.17) rotate(-22.57)"/><path class="cls-1" d="M59.75,339.77a33.31,33.31,0,0,1,13.32,5.49,32.61,32.61,0,0,1,6.5,6,36.29,36.29,0,0,0-20.83-2.86Z"/><path class="cls-2" d="M64.13,347.26a5.65,5.65,0,0,1-3.18-1.5,5.47,5.47,0,0,1-1.33-3.62V272l-2.84-4.48c1.54-.12,4.14-.32,7.35-.64,24.15-2.38,31.68-6.58,40-2.13a31.75,31.75,0,0,1,10.38,9.11c1,8.37,2.32,29.32-10.54,48.22C89.75,342.93,67.17,347.68,64.13,347.26Z"/><path class="cls-1" d="M103.45,320.45,83,319.25a4.75,4.75,0,0,1-4.69-4.78V277.65A4.75,4.75,0,0,1,83,272.87h26.47a4.75,4.75,0,0,1,4.69,4.78,52.33,52.33,0,0,1-2,27.62A50.19,50.19,0,0,1,103.45,320.45Z"/><path class="cls-3" d="M105.26,320.26l-19.92-1.19a4.67,4.67,0,0,1-4.55-4.76V277.63a4.67,4.67,0,0,1,4.55-4.76h25.71a4.67,4.67,0,0,1,4.55,4.76,53.25,53.25,0,0,1-1.91,27.51A50.53,50.53,0,0,1,105.26,320.26Z"/><path class="cls-4" d="M111.84,290.6a20.1,20.1,0,0,0,7.78-2.32c2.55-1.55,2.87-3.16,2.93-3.66l-11,1.38Z"/><circle class="cls-1" cx="96.12" cy="282.75" r="6.52"/><path class="cls-1" d="M111,280.6c1.24-.09,6.72-.42,11.26,1.38,3.89,1.54,4.71,3.69,4.91,4.36l-15.52.66Z"/><path class="cls-1" d="M77.67,322,60.5,366.63l-20.1-7.74Z"/><path class="cls-2" d="M79,319.94,61.84,364.53l-20.1-7.73Z"/><path class="cls-1" d="M76.55,304c.07,2.61.19,14.12-5,23.55-4.48,8.06-10.14,9.67-11.91,10.06q-.06-15.6-.1-31.19A21.35,21.35,0,0,1,76.55,304Z"/><circle class="cls-5" cx="96.12" cy="282.75" r="3.69"/><circle class="cls-3" cx="110.42" cy="285.8" r="5.29"/><circle class="cls-3" cx="94.89" cy="289.55" r="5.29"/><path class="cls-1" d="M167.25,340.93a33,33,0,0,1,19.83,11.49,36.44,36.44,0,0,0-20.83-2.85Z"/><path class="cls-2" d="M171.64,348.42a5.65,5.65,0,0,1-3.19-1.5,5.46,5.46,0,0,1-1.32-3.62V273.11l-2.85-4.48c1.55-.12,4.15-.32,7.36-.64,24.14-2.38,31.67-6.58,40-2.13A31.66,31.66,0,0,1,222,275c1,8.37,2.31,29.32-10.55,48.22C197.25,344.09,174.67,348.84,171.64,348.42Z"/><path class="cls-1" d="M211,321.61l-20.51-1.2a4.75,4.75,0,0,1-4.69-4.78V278.81a4.75,4.75,0,0,1,4.69-4.78h26.48a4.75,4.75,0,0,1,4.68,4.78,52.3,52.3,0,0,1-2,27.62A50.61,50.61,0,0,1,211,321.61Z"/><path class="cls-3" d="M212.76,321.42l-19.92-1.19a4.67,4.67,0,0,1-4.55-4.76V278.79a4.67,4.67,0,0,1,4.55-4.76h25.72a4.67,4.67,0,0,1,4.55,4.76,53.47,53.47,0,0,1-1.91,27.51A50.65,50.65,0,0,1,212.76,321.42Z"/><path class="cls-4" d="M219.34,291.76a20.06,20.06,0,0,0,7.78-2.32c2.55-1.55,2.88-3.16,2.94-3.67l-11,1.39Z"/><circle class="cls-1" cx="203.62" cy="283.91" r="6.52"/><path class="cls-1" d="M218.48,281.76c1.24-.09,6.72-.42,11.26,1.38,3.88,1.54,4.7,3.69,4.9,4.36a48.75,48.75,0,0,0-15.51.66C218.91,286,218.69,283.89,218.48,281.76Z"/><path class="cls-1" d="M185.17,323.19,168,367.79l-20.1-7.74Z"/><path class="cls-2" d="M186.51,321.1l-17.17,44.59L149.24,358Z"/><path class="cls-1" d="M184.06,305.2c.07,2.61.19,14.12-5.06,23.55-4.48,8.06-10.13,9.67-11.91,10.06L167,307.62a21.33,21.33,0,0,1,17.06-2.42Z"/><circle class="cls-5" cx="203.62" cy="283.91" r="3.69"/><circle class="cls-3" cx="219.09" cy="286.96" r="5.29"/><circle class="cls-3" cx="202.39" cy="293.03" r="5.29"/><path class="cls-1" d="M283,339.77a33.31,33.31,0,0,1,13.32,5.49,32.61,32.61,0,0,1,6.5,6A36.29,36.29,0,0,0,282,348.41Z"/><path class="cls-2" d="M287.36,347.26a5.65,5.65,0,0,1-3.18-1.5,5.47,5.47,0,0,1-1.33-3.62V272L280,267.47c1.54-.12,4.14-.32,7.35-.64,24.15-2.38,31.68-6.58,40-2.13a31.75,31.75,0,0,1,10.38,9.11c1,8.37,2.32,29.32-10.54,48.22C313,342.93,290.4,347.68,287.36,347.26Z"/><path class="cls-1" d="M326.68,320.45l-20.5-1.2a4.75,4.75,0,0,1-4.69-4.78V277.65a4.75,4.75,0,0,1,4.69-4.78h26.47a4.75,4.75,0,0,1,4.69,4.78,52.33,52.33,0,0,1-2,27.62A50.19,50.19,0,0,1,326.68,320.45Z"/><path class="cls-3" d="M328.49,320.26l-19.92-1.19a4.67,4.67,0,0,1-4.55-4.76V277.63a4.67,4.67,0,0,1,4.55-4.76h25.71a4.67,4.67,0,0,1,4.55,4.76,53.25,53.25,0,0,1-1.91,27.51A50.53,50.53,0,0,1,328.49,320.26Z"/><path class="cls-4" d="M335.07,290.6a20.1,20.1,0,0,0,7.78-2.32c2.55-1.55,2.87-3.16,2.93-3.66l-11,1.38Z"/><circle class="cls-1" cx="319.35" cy="282.75" r="6.52"/><path class="cls-1" d="M334.2,280.6c1.24-.09,6.72-.42,11.26,1.38,3.89,1.54,4.71,3.69,4.91,4.36a35.64,35.64,0,0,0-8.44-.49,36.06,36.06,0,0,0-7.08,1.15C334.64,284.87,334.42,282.73,334.2,280.6Z"/><path class="cls-1" d="M300.9,322l-17.17,44.6-20.1-7.74Z"/><path class="cls-2" d="M302.24,319.94l-17.17,44.59L265,356.8Z"/><path class="cls-1" d="M299.78,304c.07,2.61.19,14.12-5,23.55-4.48,8.06-10.14,9.67-11.91,10.06q-.06-15.6-.1-31.19A21.35,21.35,0,0,1,299.78,304Z"/><circle class="cls-5" cx="319.35" cy="282.75" r="3.69"/><circle class="cls-3" cx="334.81" cy="285.8" r="5.29"/><circle class="cls-3" cx="318.12" cy="293.03" r="5.29"/><ellipse class="cls-3" cx="316.32" cy="276.69" rx="5.67" ry="2.04" transform="translate(-100.23 220.99) rotate(-33.56)"/><path class="cls-1" d="M392.48,339.77a33.31,33.31,0,0,1,13.32,5.49,32.61,32.61,0,0,1,6.5,6,36.29,36.29,0,0,0-20.83-2.86Z"/><path class="cls-2" d="M396.87,347.26a5.65,5.65,0,0,1-3.19-1.5,5.47,5.47,0,0,1-1.33-3.62V272l-2.84-4.48c1.55-.12,4.15-.32,7.36-.64,24.14-2.38,31.67-6.58,40-2.13a31.75,31.75,0,0,1,10.38,9.11c1,8.37,2.32,29.32-10.54,48.22C422.48,342.93,399.9,347.68,396.87,347.26Z"/><path class="cls-1" d="M436.19,320.45l-20.51-1.2a4.75,4.75,0,0,1-4.69-4.78V277.65a4.75,4.75,0,0,1,4.69-4.78h26.47a4.75,4.75,0,0,1,4.69,4.78,52.33,52.33,0,0,1-2,27.62A50.41,50.41,0,0,1,436.19,320.45Z"/><path class="cls-3" d="M438,320.26l-19.92-1.19a4.67,4.67,0,0,1-4.55-4.76V277.63a4.67,4.67,0,0,1,4.55-4.76h25.71a4.67,4.67,0,0,1,4.56,4.76,53.47,53.47,0,0,1-1.91,27.51A50.52,50.52,0,0,1,438,320.26Z"/><path class="cls-4" d="M444.57,290.6a20.06,20.06,0,0,0,7.78-2.32c2.55-1.55,2.87-3.16,2.94-3.66l-11,1.38Z"/><circle class="cls-1" cx="428.85" cy="282.75" r="6.52"/><path class="cls-1" d="M443.71,280.6c1.24-.09,6.72-.42,11.26,1.38,3.88,1.54,4.7,3.69,4.9,4.36a22.13,22.13,0,0,0-15.51.66Z"/><path class="cls-1" d="M410.4,322l-17.17,44.6-20.1-7.74Z"/><path class="cls-2" d="M411.74,319.94l-17.17,44.59-20.1-7.73Z"/><path class="cls-1" d="M409.29,304c.06,2.61.18,14.12-5.06,23.55-4.48,8.06-10.13,9.67-11.91,10.06q0-15.6-.1-31.19A21.36,21.36,0,0,1,409.29,304Z"/><circle class="cls-5" cx="428.85" cy="282.75" r="3.69"/><circle class="cls-3" cx="444.31" cy="285.8" r="5.29"/><circle class="cls-3" cx="427.62" cy="295.35" r="5.29"/><ellipse class="cls-3" cx="425.75" cy="278.24" rx="6.37" ry="2.97" transform="translate(-82.84 281.74) rotate(-33.56)"/><ellipse class="cls-3" cx="198.26" cy="277.85" rx="5.67" ry="2.04" transform="translate(-120.55 155.91) rotate(-33.56)"/><path class="cls-1" d="M672.79,341.12a33.57,33.57,0,0,1,13.42,5.53,33.12,33.12,0,0,1,6.55,6.05,36.46,36.46,0,0,0-21-2.87Z"/><path class="cls-2" d="M677.21,348.67a5.66,5.66,0,0,1-3.21-1.52,5.46,5.46,0,0,1-1.34-3.64V272.79l-2.86-4.52c1.55-.12,4.17-.32,7.41-.64,24.32-2.41,31.91-6.64,40.29-2.15A31.89,31.89,0,0,1,728,274.66c1,8.43,2.34,29.54-10.63,48.59C703,344.3,680.27,349.09,677.21,348.67Z"/><path class="cls-1" d="M716.83,321.65l-20.67-1.2a4.79,4.79,0,0,1-4.72-4.82v-37.1a4.79,4.79,0,0,1,4.72-4.82h26.68a4.78,4.78,0,0,1,4.72,4.82,52.71,52.71,0,0,1-2,27.83A50.75,50.75,0,0,1,716.83,321.65Z"/><path class="cls-3" d="M718.64,321.46l-20.07-1.2a4.71,4.71,0,0,1-4.58-4.8V278.51a4.71,4.71,0,0,1,4.58-4.8h25.91a4.71,4.71,0,0,1,4.59,4.8,53.77,53.77,0,0,1-1.93,27.72A50.79,50.79,0,0,1,718.64,321.46Z"/><path class="cls-4" d="M724.39,291.88a19.87,19.87,0,0,0,8.13-.82c2.82-1,3.45-2.58,3.6-3.06a11.71,11.71,0,0,0-4.54-1.67,11.86,11.86,0,0,0-6.62.95Z"/><circle class="cls-1" cx="709.43" cy="284.62" r="6.57"/><path class="cls-1" d="M725.43,281.82c1.24.15,6.73.87,10.88,3.51,3.55,2.26,4,4.54,4,5.25a19.5,19.5,0,0,0-9.66-3,19,19,0,0,0-5.81.7Z"/><path class="cls-1" d="M690.84,323.25l-17.3,44.93-20.25-7.8Z"/><path class="cls-2" d="M692.19,321.14l-17.3,44.93-20.25-7.8Z"/><path class="cls-1" d="M689.72,305.12c.07,2.63.19,14.22-5.09,23.73-4.51,8.12-10.21,9.74-12,10.13q-.06-15.71-.1-31.42a12.62,12.62,0,0,0,6.72,2.39C685.3,310.22,689.21,305.73,689.72,305.12Z"/><circle class="cls-5" cx="709.43" cy="284.62" r="3.72"/><circle class="cls-3" cx="723.85" cy="286.74" r="5.33"/><ellipse class="cls-3" cx="707.74" cy="278.84" rx="7.23" ry="4.79" transform="translate(-52.82 292.94) rotate(-22.57)"/><path class="cls-1" d="M1116.21,340.93a33.26,33.26,0,0,1,13.32,5.49,32.89,32.89,0,0,1,6.5,6,36.39,36.39,0,0,0-20.82-2.85Z"/><path class="cls-2" d="M1120.6,348.42a5.65,5.65,0,0,1-3.19-1.5,5.46,5.46,0,0,1-1.32-3.62V273.11l-2.85-4.48c1.55-.12,4.15-.32,7.36-.64,24.14-2.38,31.67-6.58,40-2.13A31.65,31.65,0,0,1,1171,275c1,8.37,2.32,29.32-10.54,48.22C1146.21,344.09,1123.63,348.84,1120.6,348.42Z"/><path class="cls-1" d="M1159.92,321.61l-20.51-1.2a4.75,4.75,0,0,1-4.69-4.78V278.81a4.75,4.75,0,0,1,4.69-4.78h26.48a4.75,4.75,0,0,1,4.68,4.78,52.22,52.22,0,0,1-2,27.62A50.41,50.41,0,0,1,1159.92,321.61Z"/><path class="cls-3" d="M1161.72,321.42l-19.92-1.19a4.67,4.67,0,0,1-4.55-4.76V278.79a4.67,4.67,0,0,1,4.55-4.76h25.72a4.67,4.67,0,0,1,4.55,4.76,53.47,53.47,0,0,1-1.91,27.51A50.65,50.65,0,0,1,1161.72,321.42Z"/><path class="cls-4" d="M1168.3,291.76a20.06,20.06,0,0,0,7.78-2.32c2.55-1.55,2.88-3.16,2.94-3.67l-11,1.39Z"/><circle class="cls-1" cx="1152.58" cy="283.91" r="6.52"/><path class="cls-1" d="M1167.44,281.76c1.24-.09,6.72-.42,11.26,1.38,3.88,1.54,4.7,3.69,4.9,4.36l-15.51.66Z"/><path class="cls-1" d="M1134.13,323.19,1117,367.79l-20.1-7.74Z"/><path class="cls-2" d="M1135.47,321.1l-17.17,44.59L1098.2,358Z"/><path class="cls-1" d="M1133,305.2c.06,2.61.19,14.12-5.06,23.55-4.48,8.06-10.13,9.67-11.91,10.06q0-15.6-.1-31.19A21.36,21.36,0,0,1,1133,305.2Z"/><circle class="cls-5" cx="1152.58" cy="283.91" r="3.69"/><circle class="cls-3" cx="1166.89" cy="286.96" r="5.29"/><circle class="cls-3" cx="1151.35" cy="290.71" r="5.29"/><path class="cls-1" d="M897.23,340.93a33.37,33.37,0,0,1,13.32,5.49,32.89,32.89,0,0,1,6.5,6,36.44,36.44,0,0,0-20.83-2.85Z"/><path class="cls-2" d="M901.61,348.42a5.65,5.65,0,0,1-3.19-1.5,5.52,5.52,0,0,1-1.32-3.62V273.11l-2.84-4.48c1.54-.12,4.14-.32,7.35-.64,24.14-2.38,31.67-6.58,40-2.13A31.66,31.66,0,0,1,952,275c1,8.37,2.32,29.32-10.55,48.22C927.23,344.09,904.65,348.84,901.61,348.42Z"/><path class="cls-1" d="M940.93,321.61l-20.51-1.2a4.74,4.74,0,0,1-4.68-4.78V278.81a4.74,4.74,0,0,1,4.68-4.78H946.9a4.75,4.75,0,0,1,4.69,4.78,52.33,52.33,0,0,1-2,27.62A50.4,50.4,0,0,1,940.93,321.61Z"/><path class="cls-3" d="M942.73,321.42l-19.92-1.19a4.67,4.67,0,0,1-4.55-4.76V278.79a4.67,4.67,0,0,1,4.55-4.76h25.72a4.67,4.67,0,0,1,4.55,4.76,53.36,53.36,0,0,1-1.91,27.51A50.43,50.43,0,0,1,942.73,321.42Z"/><path class="cls-4" d="M949.32,291.76a20.07,20.07,0,0,0,7.77-2.32c2.56-1.55,2.88-3.16,2.94-3.67l-11,1.39Z"/><circle class="cls-1" cx="933.59" cy="283.91" r="6.52"/><path class="cls-1" d="M948.45,281.76c1.24-.09,6.72-.42,11.26,1.38,3.88,1.54,4.7,3.69,4.9,4.36a35.69,35.69,0,0,0-15.51.66C948.88,286,948.67,283.89,948.45,281.76Z"/><path class="cls-1" d="M915.14,323.19,898,367.79l-20.09-7.74Z"/><path class="cls-2" d="M916.48,321.1l-17.17,44.59L879.22,358Z"/><path class="cls-1" d="M914,305.2c.07,2.61.19,14.12-5,23.55-4.48,8.06-10.14,9.67-11.92,10.06L897,307.62A21.35,21.35,0,0,1,914,305.2Z"/><circle class="cls-5" cx="933.59" cy="283.91" r="3.69"/><circle class="cls-3" cx="949.06" cy="286.96" r="5.29"/><circle class="cls-3" cx="932.36" cy="294.19" r="5.29"/><ellipse class="cls-3" cx="930.57" cy="277.85" rx="5.67" ry="2.04" transform="translate(1.52 560.74) rotate(-33.56)"/><path class="cls-1" d="M783.4,340.93a33.26,33.26,0,0,1,13.32,5.49,32.89,32.89,0,0,1,6.5,6,36.39,36.39,0,0,0-20.82-2.85Z"/><path class="cls-2" d="M787.79,348.42a5.65,5.65,0,0,1-3.19-1.5,5.46,5.46,0,0,1-1.32-3.62V273.11l-2.85-4.48c1.55-.12,4.15-.32,7.36-.64,24.14-2.38,31.67-6.58,40-2.13A31.65,31.65,0,0,1,838.16,275c1,8.37,2.32,29.32-10.54,48.22C813.4,344.09,790.82,348.84,787.79,348.42Z"/><path class="cls-1" d="M827.11,321.61l-20.51-1.2a4.75,4.75,0,0,1-4.69-4.78V278.81A4.75,4.75,0,0,1,806.6,274h26.48a4.75,4.75,0,0,1,4.68,4.78,52.3,52.3,0,0,1-2,27.62A50.61,50.61,0,0,1,827.11,321.61Z"/><path class="cls-3" d="M828.91,321.42,809,320.23a4.67,4.67,0,0,1-4.55-4.76V278.79A4.67,4.67,0,0,1,809,274h25.72a4.67,4.67,0,0,1,4.55,4.76,53.47,53.47,0,0,1-1.91,27.51A50.65,50.65,0,0,1,828.91,321.42Z"/><path class="cls-4" d="M835.49,291.76a20.06,20.06,0,0,0,7.78-2.32c2.55-1.55,2.88-3.16,2.94-3.67l-11,1.39Z"/><circle class="cls-1" cx="819.77" cy="283.91" r="6.52"/><path class="cls-1" d="M834.63,281.76c1.24-.09,6.72-.42,11.26,1.38,3.88,1.54,4.7,3.69,4.9,4.36a22.14,22.14,0,0,0-15.51.66Z"/><path class="cls-1" d="M801.32,323.19l-17.17,44.6-20.1-7.74Z"/><path class="cls-2" d="M802.66,321.1l-17.17,44.59L765.39,358Z"/><path class="cls-1" d="M800.21,305.2c.06,2.61.19,14.12-5.06,23.55-4.48,8.06-10.13,9.67-11.91,10.06q0-15.6-.1-31.19a21.36,21.36,0,0,1,17.07-2.42Z"/><circle class="cls-5" cx="819.77" cy="283.91" r="3.69"/><circle class="cls-3" cx="835.23" cy="286.96" r="5.29"/><circle class="cls-3" cx="818.54" cy="296.51" r="5.29"/><ellipse class="cls-3" cx="816.67" cy="279.4" rx="6.37" ry="2.97" transform="translate(-18.32 498.04) rotate(-33.56)"/><path class="cls-1" d="M1011.24,340.93a33.34,33.34,0,0,1,13.33,5.49,32.89,32.89,0,0,1,6.5,6,36.44,36.44,0,0,0-20.83-2.85Z"/><path class="cls-2" d="M1015.63,348.42a5.65,5.65,0,0,1-3.19-1.5,5.52,5.52,0,0,1-1.32-3.62V273.11l-2.84-4.48c1.54-.12,4.14-.32,7.35-.64,24.14-2.38,31.67-6.58,40-2.13A31.66,31.66,0,0,1,1066,275c1,8.37,2.32,29.32-10.55,48.22C1041.25,344.09,1018.66,348.84,1015.63,348.42Z"/><path class="cls-1" d="M1055,321.61l-20.51-1.2a4.74,4.74,0,0,1-4.68-4.78V278.81a4.74,4.74,0,0,1,4.68-4.78h26.48a4.74,4.74,0,0,1,4.68,4.78,52.19,52.19,0,0,1-2,27.62A50.4,50.4,0,0,1,1055,321.61Z"/><path class="cls-3" d="M1056.75,321.42l-19.92-1.19a4.67,4.67,0,0,1-4.55-4.76V278.79a4.67,4.67,0,0,1,4.55-4.76h25.72a4.67,4.67,0,0,1,4.55,4.76,53.36,53.36,0,0,1-1.91,27.51A50.65,50.65,0,0,1,1056.75,321.42Z"/><path class="cls-4" d="M1063.34,291.76a20.07,20.07,0,0,0,7.77-2.32c2.56-1.55,2.88-3.16,2.94-3.67l-11,1.39Z"/><circle class="cls-1" cx="1047.61" cy="283.91" r="6.52"/><path class="cls-1" d="M1062.47,281.76c1.24-.09,6.72-.42,11.26,1.38,3.88,1.54,4.7,3.69,4.9,4.36a48.75,48.75,0,0,0-15.51.66C1062.9,286,1062.69,283.89,1062.47,281.76Z"/><path class="cls-1" d="M1029.16,323.19,1012,367.79l-20.1-7.74Z"/><path class="cls-2" d="M1030.5,321.1l-17.17,44.59L993.23,358Z"/><path class="cls-1" d="M1028.05,305.2c.07,2.61.19,14.12-5,23.55-4.48,8.06-10.14,9.67-11.92,10.06l-.09-31.19a21.35,21.35,0,0,1,17.06-2.42Z"/><circle class="cls-5" cx="1047.61" cy="283.91" r="3.69"/><circle class="cls-3" cx="1063.08" cy="286.96" r="5.29"/><circle class="cls-3" cx="1046.38" cy="293.03" r="5.29"/><ellipse class="cls-3" cx="1042.25" cy="277.85" rx="5.67" ry="2.04" transform="translate(20.14 622.48) rotate(-33.56)"/></svg>